<?xml version="1.0" encoding="UTF-8" standalone="no"?>
<!-- Created with Inkscape (http://www.inkscape.org/) -->

<svg
   xmlns:dc="http://purl.org/dc/elements/1.1/"
   xmlns:cc="http://creativecommons.org/ns#"
   xmlns:rdf="http://www.w3.org/1999/02/22-rdf-syntax-ns#"
   xmlns:svg="http://www.w3.org/2000/svg"
   xmlns="http://www.w3.org/2000/svg"
   xmlns:sodipodi="http://sodipodi.sourceforge.net/DTD/sodipodi-0.dtd"
   xmlns:inkscape="http://www.inkscape.org/namespaces/inkscape"
   width="744.09448819"
   height="1052.3622047"
   id="svg2"
   version="1.1"
   inkscape:version="0.47 r22583"
   sodipodi:docname="New document 1">
  <defs
     id="defs4">
    <inkscape:perspective
       sodipodi:type="inkscape:persp3d"
       inkscape:vp_x="0 : 526.18109 : 1"
       inkscape:vp_y="0 : 1000 : 0"
       inkscape:vp_z="744.09448 : 526.18109 : 1"
       inkscape:persp3d-origin="372.04724 : 350.78739 : 1"
       id="perspective10" />
    <inkscape:perspective
       id="perspective2841"
       inkscape:persp3d-origin="305.85828 : 75.188975 : 1"
       inkscape:vp_z="611.71655 : 112.78346 : 1"
       inkscape:vp_y="0 : 1000 : 0"
       inkscape:vp_x="0 : 112.78346 : 1"
       sodipodi:type="inkscape:persp3d" />
    <inkscape:perspective
       id="perspective2870"
       inkscape:persp3d-origin="0.5 : 0.33333333 : 1"
       inkscape:vp_z="1 : 0.5 : 1"
       inkscape:vp_y="0 : 1000 : 0"
       inkscape:vp_x="0 : 0.5 : 1"
       sodipodi:type="inkscape:persp3d" />
  </defs>
  <sodipodi:namedview
     id="base"
     pagecolor="#ffffff"
     bordercolor="#666666"
     borderopacity="1.0"
     inkscape:pageopacity="0.0"
     inkscape:pageshadow="2"
     inkscape:zoom="0.90509668"
     inkscape:cx="375"
     inkscape:cy="829.35922"
     inkscape:document-units="px"
     inkscape:current-layer="layer1"
     showgrid="false"
     showguides="true"
     inkscape:guide-bbox="true"
     inkscape:window-width="1378"
     inkscape:window-height="783"
     inkscape:window-x="-4"
     inkscape:window-y="-4"
     inkscape:window-maximized="1" />
  <metadata
     id="metadata7">
    <rdf:RDF>
      <cc:Work
         rdf:about="">
        <dc:format>image/svg+xml</dc:format>
        <dc:type
           rdf:resource="http://purl.org/dc/dcmitype/StillImage" />
        <dc:title></dc:title>
      </cc:Work>
    </rdf:RDF>
  </metadata>
  <g
     inkscape:label="Layer 1"
     inkscape:groupmode="layer"
     id="layer1">
    <g
       id="1"
       transform="matrix(0.00166578,0,0,0.00437764,38.540977,50.39197)">
      <path
         d="m 42208.442,32932.771 c 0,3609.071 -7340.598,6767.008 -16516.347,6767.008 -9787.465,0 -16516.3467,-3157.937 -16516.3467,-6767.008 0,-3834.638 6728.8817,-6767.008 16516.3467,-6767.008 9175.749,0 16516.347,2932.37 16516.347,6767.008 l 0,0 0,0 M 25692.095,22782.259 C 11622.615,22782.259 0,27068.031 0,32932.771 c 0,5639.173 11622.615,10150.512 25692.095,10150.512 13457.764,0 25080.379,-4511.339 25080.379,-10150.512 0,-5864.74 -11622.615,-10150.512 -25080.379,-10150.512 l 0,0 0,0"
         style="fill:#25221e;fill-opacity:1;fill-rule:evenodd;stroke:none"
         id="2" />
      <path
         d="m 72182.553,32030.503 c 5505.449,0 11010.898,1127.835 11010.898,3609.071 0,3157.937 -5505.449,4060.205 -11622.614,4060.205 -6117.166,0 -10399.182,-1353.402 -10399.182,-4060.205 0,-2481.236 5505.449,-3609.071 11010.898,-3609.071 l 0,0 0,0 m 19574.93,10376.079 0,-12406.181 0,0 c 0,-5188.039 -5505.449,-7218.142 -18351.497,-7218.142 -4282.016,0 -9787.465,451.134 -12846.047,676.701 l 0,0 -2446.866,3834.638 0,0 c 4893.732,-1127.835 9787.464,-1127.835 14069.48,-1127.835 6728.882,0 11010.898,225.567 11010.898,2932.37 l 0,0 0,1578.969 0,0 C 80134.868,29323.7 75852.853,28872.566 70959.12,28872.566 c -9175.748,0 -18351.496,2481.237 -18351.496,6767.008 0,4285.772 6728.882,7443.709 17128.063,7443.709 6117.166,0 11622.615,-451.134 14069.481,-2706.803 l 0,0 0,0 0,2706.803 7952.315,-676.701 0,0"
         style="fill:#25221e;fill-opacity:1;fill-rule:evenodd;stroke:none"
         id="3" />
      <path
         d="m 101544.95,37669.676 c 2446.86,1353.402 5505.45,2255.67 9787.46,2255.67 3670.3,0 7952.32,-676.701 7952.32,-2481.236 0,-4962.473 -23245.231,-1578.969 -23245.231,-8797.111 0,-3383.503 6728.881,-5864.74 15292.911,-5864.74 6728.88,0 10399.18,676.701 15292.92,2481.237 l 0,0 -5505.45,2481.236 0,0 c -3058.59,-1127.835 -4893.73,-1804.536 -9175.75,-1804.536 -3670.3,0 -7340.6,451.134 -7340.6,2255.67 0,4285.771 23245.23,1127.834 23245.23,8797.11 0,3609.071 -7340.6,6090.307 -15904.63,6090.307 -7340.6,0 -12234.332,-902.268 -16516.348,-3157.937 l 0,0 6117.168,-2255.67 0,0"
         style="fill:#25221e;fill-opacity:1;fill-rule:evenodd;stroke:none"
         id="4" />
      <path
         d="m 131519.06,43083.283 0,-19849.89 9175.75,-451.134 0,19624.323 -9175.75,676.701 0,0 m 4282.01,-27744.732 6117.17,2932.37 -5505.45,2932.37 -6117.16,-2932.37 5505.44,-2932.37 0,0"
         style="fill:#25221e;fill-opacity:1;fill-rule:evenodd;stroke:none"
         id="5" />
      <path
         d="m 151093.99,37669.676 c 2446.86,1353.402 5505.45,2255.67 9787.46,2255.67 3670.3,0 7952.32,-676.701 7952.32,-2481.236 0,-4962.473 -23245.23,-1578.969 -23245.23,-8797.111 0,-3383.503 6728.88,-5864.74 15292.91,-5864.74 6728.89,0 10399.18,676.701 15292.92,2481.237 l 0,0 -5505.45,2481.236 0,0 c -2446.87,-1127.835 -4893.73,-1804.536 -9175.75,-1804.536 -3670.3,0 -6728.88,451.134 -6728.88,2255.67 0,4285.771 22633.51,1127.834 22633.51,8797.11 0,3609.071 -7340.6,6090.307 -15904.63,6090.307 -7340.6,0 -12234.33,-902.268 -16516.35,-3157.937 l 0,0 6117.17,-2255.67 0,0"
         style="fill:#25221e;fill-opacity:1;fill-rule:evenodd;stroke:none"
         id="6" />
      <path
         d="m 250192.07,32932.771 c 0,4285.772 -8564.03,7894.842 -18963.21,7894.842 -11010.9,0 -18351.5,-3609.07 -18351.5,-7894.842 0,-3834.638 7340.6,-7669.275 18351.5,-7669.275 9787.46,0 18963.21,2706.803 18963.21,7669.275 l 0,0 0,0 m 0,-6090.307 -611.72,0 0,0 c -4282.01,-2255.669 -10399.18,-3834.638 -18351.49,-3834.638 -13457.77,0 -23856.95,4285.772 -23856.95,9924.945 0,5864.74 10399.18,9924.945 23856.95,9924.945 7952.31,0 14681.19,-1578.969 18351.49,-3609.071 l 0,0 611.72,0 0,3609.071 4893.73,-451.134 0,-27293.598 -4893.73,451.134 0,11278.346 0,0"
         style="fill:#25221e;fill-opacity:1;fill-rule:evenodd;stroke:none"
         id="7" />
      <path
         d="m 261202.97,42857.716 0,-19398.756 5505.45,-451.134 0,19398.756 -5505.45,451.134 0,0 m 6728.88,-25940.197 -4282.02,2030.103 -4282.01,-2030.103 4282.01,-1804.535 4282.02,1804.535 0,0"
         style="fill:#25221e;fill-opacity:1;fill-rule:evenodd;stroke:none"
         id="8" />
      <path
         d="m 319927.76,42857.716 0,-19398.756 5505.45,-451.134 0,19398.756 -5505.45,451.134 0,0 m 6728.88,-25940.197 -4282.02,2030.103 -4282.01,-2030.103 4282.01,-1804.535 4282.02,1804.535 0,0"
         style="fill:#25221e;fill-opacity:1;fill-rule:evenodd;stroke:none"
         id="9" />
      <path
         d="m 335832.39,18722.055 5505.45,-1127.835 0,5864.74 12846.04,0 0,2255.669 -12846.04,0 0,11729.481 0,0 c 0,2255.669 2446.86,3157.937 8564.03,3157.937 1223.43,0 2446.86,0 4282.01,0 l 0,0 0,2030.102 0,0 c -1835.15,0 -3058.58,225.567 -4893.73,225.567 -8564.03,0 -13457.76,-2030.103 -13457.76,-5413.606 l 0,0 0,-11729.481 -6117.17,0 1223.44,-2255.669 4893.73,0 0,-4736.905 0,0"
         style="fill:#25221e;fill-opacity:1;fill-rule:evenodd;stroke:none"
         id="10" />
      <path
         d="m 359689.33,36316.275 c 0,-3157.937 4893.74,-4962.472 12234.33,-4962.472 6728.89,0 11622.62,1804.535 11622.62,4736.905 0,2706.803 -4893.73,4736.905 -11622.62,4736.905 -6117.16,0 -12234.33,-1804.535 -12234.33,-4511.338 l 0,0 0,0 m -611.71,-9699.378 c 3670.3,-451.134 9175.74,-1353.401 13457.76,-1353.401 6117.17,0 11010.9,1353.401 11010.9,2932.37 l 0,0 0,3157.937 0,0 c -3058.58,-1127.835 -7952.32,-2255.67 -12234.33,-2255.67 -10399.18,0 -17128.07,2932.37 -17128.07,7218.142 0,4060.205 7952.32,6541.441 17739.78,6541.441 5505.45,0 9175.75,-902.268 11010.9,-2255.669 l 0,0 611.72,0 0,2255.669 5505.45,-451.134 0,-14661.85 0,0 c 0,-3157.937 -7340.6,-4736.906 -14681.2,-4736.906 -4893.73,0 -9175.75,451.134 -13457.76,1127.835 l 0,0 -1835.15,2481.236 0,0"
         style="fill:#25221e;fill-opacity:1;fill-rule:evenodd;stroke:none"
         id="11" />
      <path
         d="m 399450.91,42406.582 -5505.45,451.134 0,-27293.598 5505.45,-451.134 0,27293.598 0,0"
         style="fill:#25221e;fill-opacity:1;fill-rule:evenodd;stroke:none"
         id="12" />
      <path
         d="m 292400.51,25940.196 c 8564.03,0 17128.07,2932.37 17128.07,7669.276 0,4736.905 -9175.75,7218.141 -17128.07,7218.141 -8564.03,0 -17128.06,-2481.236 -17128.06,-7218.141 0,-4736.906 8564.03,-7669.276 17128.06,-7669.276 l 0,0 0,0 m -20186.64,22105.559 c 6728.88,6315.874 20798.36,6315.874 20798.36,6315.874 23245.23,0 21410.08,-9473.811 21410.08,-9473.811 l 0,0 0,-11052.779 0,0 c 0,-3383.504 -1835.15,-5639.173 -6117.17,-7443.709 l 0,0 -1223.43,-225.567 0,0 c 611.72,225.567 1835.15,225.567 3058.58,225.567 1223.44,0 2446.87,0 4282.02,-451.134 l 0,0 1835.15,-3157.937 0,0 c -5505.45,676.701 -11622.62,1127.835 -17739.78,1127.835 -1835.15,0 -4282.02,-225.567 -6117.17,-225.567 -12234.33,0 -22021.79,3834.638 -22021.79,10376.079 0,2932.37 4282.01,6315.874 9787.46,7443.708 0,0 14681.2,4060.205 27527.25,-676.701 0,0 611.71,-451.133 1223.43,-902.267 l 0,0 0,5188.039 0,0 c 0,7894.842 -15904.63,6992.575 -15904.63,6992.575 -10399.18,0 -12846.05,-3157.937 -15292.92,-4511.339 l 0,0 -5505.44,451.134 0,0"
         style="fill:#25221e;fill-opacity:1;fill-rule:evenodd;stroke:none"
         id="13" />
      <path
         d="m 236734.31,17819.787 c 0,-5639.173 -14069.48,-9248.2438 -30585.83,-11052.7792 l 0,0 -1835.15,1127.8346 0,0 c 16516.35,1578.9685 28750.68,5639.1736 28750.68,11052.7796 l 0,0 3670.3,-1127.835 0,0"
         style="fill:#6bc334;fill-opacity:1;fill-rule:evenodd;stroke:none"
         id="14" />
      <path
         d="m 158434.59,11955.047 c 5505.45,-5188.0392 22021.79,-6315.8739 40985.01,-5864.74 l 0,0 -3058.59,1353.4015 0,0 c -19574.93,676.7008 -29974.11,902.2677 -34867.84,6090.3075 l 0,0 -3058.58,-1578.969 0,0"
         style="fill:#6bc334;fill-opacity:1;fill-rule:evenodd;stroke:none"
         id="15" />
      <path
         d="m 203701.61,6090.307 c 0,0 -12846.05,5413.606 -6117.16,19624.322 0,0 13457.76,15112.984 -12234.33,17368.654 l 0,0 -3670.3,-3383.504 0,0 c 0,0 17128.06,-1804.536 8564.03,-13759.583 0,0 -10399.18,-9924.944 13457.76,-19849.889 l 0,0 0,0"
         style="fill:#009049;fill-opacity:1;fill-rule:evenodd;stroke:none"
         id="16" />
      <path
         d="m 166998.62,1353.4016 c 11010.9,-3157.937 23856.94,-451.1339 35479.56,3383.5038 l 0,0 -1223.43,676.7008 0,0 C 187185.27,2255.6693 179232.95,-225.56693 166386.9,2932.37 l 0,0 611.72,-1578.9684 0,0"
         style="fill:#6bc334;fill-opacity:1;fill-rule:evenodd;stroke:none"
         id="17" />
      <path
         d="M 245910.05,5864.7401 C 236734.31,1804.5354 223276.54,2255.6693 207983.63,4962.4724 l 0,0 -1835.15,902.2677 0,0 c 15292.91,-2706.8031 29974.11,-2481.2362 39761.57,1804.5354 l 0,0 0,-1804.5354 0,0"
         style="fill:#6bc334;fill-opacity:1;fill-rule:evenodd;stroke:none"
         id="18" />
    </g>
  </g>
</svg>
